<svg xmlns="http://www.w3.org/2000/svg" viewBox="0 0 751 751"><g id="Layer_2" data-name="Layer 2"><g id="Layer_1-2" data-name="Layer 1"><path d="M375.5,12A363.6,363.6,0,0,1,517,710.44,363.6,363.6,0,0,1,234,40.56,361.26,361.26,0,0,1,375.5,12m0-12C168.12,0,0,168.12,0,375.5S168.12,751,375.5,751,751,582.88,751,375.5,582.88,0,375.5,0Z"/><path d="M381.74,264.71A110.4,110.4,0,1,1,303.68,297a109.69,109.69,0,0,1,78.06-32.33m0-12a122.4,122.4,0,1,0,122.4,122.4,122.4,122.4,0,0,0-122.4-122.4Z"/><circle cx="427" cy="147" r="12"/><circle cx="604" cy="253" r="12"/><circle cx="592" cy="165" r="12"/><circle cx="514" cy="265" r="10"/><circle cx="504" cy="109" r="10"/><circle cx="382" cy="62" r="8"/><circle cx="427" cy="217" r="8"/><circle cx="672" cy="363" r="12"/><circle cx="626" cy="444" r="12"/><circle cx="638" cy="554" r="12"/><circle cx="548" cy="397" r="10"/><circle cx="694" cy="442" r="10"/><circle cx="566" cy="498" r="8"/><circle cx="580" cy="319" r="8"/><circle cx="684" cy="286" r="8"/><circle cx="329" cy="638" r="12"/><circle cx="164" cy="620" r="12"/><circle cx="252" cy="676" r="10"/><circle cx="130" cy="341" r="12"/><circle cx="118" cy="231" r="12"/><circle cx="208" cy="388" r="10"/><circle cx="62" cy="343" r="10"/><circle cx="176" cy="474" r="8"/><circle cx="72" cy="499" r="8"/><circle cx="218" cy="278" r="8"/><circle cx="176" cy="153" r="8"/><circle cx="456" cy="574" r="8"/><circle cx="472" cy="668" r="8"/><circle cx="538" cy="608" r="12"/><circle cx="376" cy="566" r="12"/><circle cx="242" cy="552" r="12"/><circle cx="280" cy="109" r="12"/><circle cx="300" cy="193" r="8"/><circle cx="398" cy="686" r="8"/></g></g></svg>